<?xml version="1.0" standalone="no"?>
<!DOCTYPE svg PUBLIC "-//W3C//DTD SVG 20010904//EN"
 "http://www.w3.org/TR/2001/REC-SVG-20010904/DTD/svg10.dtd">
<svg version="1.0" xmlns="http://www.w3.org/2000/svg"
 width="605.000000pt" height="407.003133pt" viewBox="0 0 605.000000 407.003133"
 preserveAspectRatio="xMidYMid meet">
<metadata>
Created by potrace 1.16, written by Peter Selinger 2001-2019
</metadata>
<g transform="translate(-211.000000,787.003133) scale(0.100000,-0.100000)"
fill="#000000" stroke="none">
<path d="M4274 7708 c-50 -90 -176 -314 -279 -498 -103 -184 -229 -409 -280
-500 -51 -91 -117 -210 -148 -265 -30 -55 -96 -174 -147 -265 -117 -208 -672
-1212 -1039 -1880 -90 -162 -187 -338 -217 -392 -30 -53 -54 -99 -54 -102 0
-4 387 -6 860 -5 l860 0 19 38 c17 33 176 308 376 649 l77 132 573 0 572 0 54
-87 c50 -83 149 -237 377 -585 l97 -148 1092 0 c821 0 1093 3 1093 12 0 6 -41
81 -92 167 -50 86 -123 210 -161 276 -39 66 -173 292 -299 502 -217 363 -228
384 -214 405 46 73 333 598 328 603 -3 3 -160 5 -349 5 -189 0 -343 4 -343 8
0 5 -41 78 -91 163 -51 85 -144 242 -207 349 -224 379 -457 769 -656 1099
-111 183 -220 365 -242 405 l-42 71 -713 3 -714 2 -91 -162z m1552 -333 c98
-165 240 -403 315 -530 75 -126 185 -313 246 -415 163 -275 383 -651 383 -656
0 -2 -217 -3 -482 -2 l-482 3 -83 135 c-242 393 -311 508 -658 1080 -174 289
-339 560 -366 603 -27 43 -49 79 -49 80 0 1 224 2 498 2 l498 0 180 -300z
m-1294 31 c58 -102 139 -240 252 -430 42 -70 78 -132 79 -135 1 -4 -26 -56
-61 -114 -62 -106 -212 -373 -487 -867 -78 -140 -218 -390 -310 -555 -134
-239 -483 -874 -670 -1217 l-31 -57 -402 -5 -403 -6 12 22 c7 13 53 97 104
188 51 91 141 255 200 365 59 110 141 259 180 330 40 72 132 238 205 370 73
132 165 299 205 370 40 72 150 272 245 445 95 173 176 320 180 325 7 9 491
880 590 1062 l34 62 13 -31 c7 -17 36 -72 65 -122z m562 -1009 l87 -139 -47
-86 c-26 -48 -174 -310 -329 -582 -155 -272 -310 -546 -345 -607 l-63 -113
-189 0 -190 0 20 33 c11 17 63 109 114 202 52 94 243 436 423 760 181 325 345
620 364 657 l35 66 17 -26 c9 -15 55 -89 103 -165z m2245 -869 c-30 -58 -362
-644 -368 -651 -4 -4 -523 -6 -1154 -5 l-1147 3 106 190 c58 105 140 251 181
325 41 74 80 141 85 148 8 9 252 12 1160 12 l1149 0 -12 -22z m23 -798 c47
-80 156 -266 243 -415 86 -148 160 -276 162 -283 4 -10 -84 -12 -453 -10
l-458 3 -182 305 -183 305 307 5 306 5 75 133 c65 116 75 130 86 115 7 -10 50
-83 97 -163z m-1047 -272 c54 -90 136 -223 182 -296 46 -73 83 -135 83 -138 0
-2 -107 -4 -238 -4 l-238 0 -128 203 c-71 111 -158 246 -192 300 l-64 97 249
0 248 0 98 -162z"/>
</g>
</svg>
